<?xml version="1.0" standalone="no"?><!DOCTYPE svg PUBLIC "-//W3C//DTD SVG 1.1//EN" "http://www.w3.org/Graphics/SVG/1.1/DTD/svg11.dtd"><svg t="1642941831619" class="icon" viewBox="0 0 1024 1024" version="1.1" xmlns="http://www.w3.org/2000/svg" p-id="8029" width="32" height="32" xmlns:xlink="http://www.w3.org/1999/xlink"><defs><style type="text/css"></style></defs><path d="M512 46.545455C254.929455 46.545455 46.545455 254.929455 46.545455 512s208.384 465.454545 465.454545 465.454545 465.454545-208.384 465.454545-465.454545S769.070545 46.545455 512 46.545455z m275.316364 425.890909a170.24 170.24 0 0 1-95.813819 71.493818c-1.536 0-1.536 0-3.025454 1.582545-6.120727 1.466182-12.218182 3.025455-19.781818 3.025455-28.928 0-44.125091-19.781818-36.538182-42.589091 6.097455-16.756364 22.807273-32 42.589091-38.050909 32-12.218182 53.294545-38.050909 53.294545-68.491637 0-41.006545-39.563636-74.472727-88.273454-74.472727-48.686545 0-88.250182 33.466182-88.250182 74.472727v226.676364c0 54.690909-31.883636 101.888-79.034182 129.303273a173.568 173.568 0 0 1-88.250182 22.807273c-92.741818 0-167.330909-68.421818-167.330909-152.110546 0-27.345455 7.563636-51.712 21.294546-74.519273a170.24 170.24 0 0 1 95.767272-71.563636c7.610182-1.466182 13.661091-2.978909 21.294546-2.978909 28.904727 0 44.101818 19.781818 36.538182 42.589091-6.120727 16.709818-21.294545 30.370909-39.563637 38.004363a11.52 11.52 0 0 0-6.050909 3.025455c-28.974545 12.218182-48.756364 36.608-48.756363 66.978909 0 41.076364 39.563636 74.472727 88.273454 74.472727 48.686545 0 88.203636-33.396364 88.203636-74.472727V400.989091c0-54.807273 31.976727-101.934545 79.127273-129.28 26.810182-15.36 57.274182-23.272727 88.203637-22.853818 92.788364 0 167.330909 68.468364 167.330909 152.064a135.144727 135.144727 0 0 1-21.317819 71.563636l0.069819-0.046545z" p-id="8030"></path></svg>